<svg width="16" height="16" viewBox="0 0 16 16" fill="none" xmlns="http://www.w3.org/2000/svg">
<path d="M13.1913 5.27931C12.9958 5.10041 12.7314 5 12.4557 5C12.18 5 11.9155 5.10041 11.72 5.27931L7.97391 8.67957L4.27997 5.27931C4.08446 5.10041 3.81999 5 3.54432 5C3.26864 5 3.00417 5.10041 2.80866 5.27931C2.71086 5.36861 2.63323 5.47484 2.58025 5.59189C2.52727 5.70894 2.5 5.83448 2.5 5.96129C2.5 6.08809 2.52727 6.21363 2.58025 6.33068C2.63323 6.44773 2.71086 6.55396 2.80866 6.64326L7.23304 10.7159C7.33004 10.8059 7.44545 10.8774 7.57261 10.9261C7.69977 10.9749 7.83616 11 7.97391 11C8.11166 11 8.24805 10.9749 8.37521 10.9261C8.50237 10.8774 8.61778 10.8059 8.71479 10.7159L13.1913 6.64326C13.2891 6.55396 13.3668 6.44773 13.4197 6.33068C13.4727 6.21363 13.5 6.08809 13.5 5.96129C13.5 5.83448 13.4727 5.70894 13.4197 5.59189C13.3668 5.47484 13.2891 5.36861 13.1913 5.27931Z" fill="currentColor"/>
</svg>
