<svg width="15" height="16" viewBox="0 0 15 16" fill="none" xmlns="http://www.w3.org/2000/svg">
<path d="M14.9374 7.70012C13.4229 4.18385 10.5739 2.00211 7.5 2.00211C4.42607 2.00211 1.57706 4.18385 0.0625918 7.70012C0.0213087 7.79471 0 7.89681 0 8.00002C0 8.10322 0.0213087 8.20532 0.0625918 8.29991C1.57706 11.8162 4.42607 13.9979 7.5 13.9979C10.5739 13.9979 13.4229 11.8162 14.9374 8.29991C14.9787 8.20532 15 8.10322 15 8.00002C15 7.89681 14.9787 7.79471 14.9374 7.70012ZM7.5 12.4984C5.12333 12.4984 2.87411 10.7815 1.57706 8.00002C2.87411 5.21848 5.12333 3.50158 7.5 3.50158C9.87667 3.50158 12.1259 5.21848 13.4229 8.00002C12.1259 10.7815 9.87667 12.4984 7.5 12.4984ZM7.5 5.00106C6.90686 5.00106 6.32705 5.17695 5.83387 5.50648C5.34069 5.83601 4.95631 6.30438 4.72933 6.85237C4.50234 7.40035 4.44295 8.00334 4.55867 8.58508C4.67438 9.16682 4.96001 9.70119 5.37942 10.1206C5.79883 10.54 6.33319 10.8256 6.91493 10.9413C7.49667 11.0571 8.09966 10.9977 8.64765 10.7707C9.19564 10.5437 9.66401 10.1593 9.99354 9.66615C10.3231 9.17297 10.499 8.59315 10.499 8.00002C10.499 7.20464 10.183 6.44185 9.62058 5.87943C9.05817 5.31702 8.29537 5.00106 7.5 5.00106ZM7.5 9.49949C7.20343 9.49949 6.91352 9.41155 6.66694 9.24679C6.42035 9.08202 6.22816 8.84783 6.11466 8.57384C6.00117 8.29985 5.97148 7.99835 6.02933 7.70748C6.08719 7.41661 6.23 7.14943 6.43971 6.93973C6.64942 6.73002 6.9166 6.58721 7.20747 6.52935C7.49834 6.47149 7.79983 6.50119 8.07382 6.61468C8.34782 6.72817 8.58201 6.92036 8.74677 7.16695C8.91153 7.41354 8.99948 7.70345 8.99948 8.00002C8.99948 8.3977 8.8415 8.7791 8.56029 9.06031C8.27908 9.34151 7.89769 9.49949 7.5 9.49949Z" fill="currentColor"/>
</svg>
