<svg width="16" height="16" viewBox="0 0 16 16" fill="none" xmlns="http://www.w3.org/2000/svg">
<path d="M2.75 12.5022H5.93C6.0287 12.5028 6.12655 12.4838 6.21793 12.4465C6.30931 12.4092 6.39242 12.3542 6.4625 12.2847L11.6525 7.08718L13.7825 5.00218C13.8528 4.93246 13.9086 4.84951 13.9467 4.75811C13.9847 4.66672 14.0043 4.56869 14.0043 4.46968C14.0043 4.37067 13.9847 4.27264 13.9467 4.18125C13.9086 4.08985 13.8528 4.0069 13.7825 3.93718L10.6025 0.719682C10.5328 0.649386 10.4498 0.59359 10.3584 0.555513C10.267 0.517437 10.169 0.497833 10.07 0.497833C9.97099 0.497833 9.87296 0.517437 9.78157 0.555513C9.69017 0.59359 9.60722 0.649386 9.5375 0.719682L7.4225 2.84218L2.2175 8.03968C2.14799 8.10976 2.093 8.19287 2.05567 8.28425C2.01835 8.37563 1.99943 8.47348 2 8.57218V11.7522C2 11.9511 2.07902 12.1419 2.21967 12.2825C2.36032 12.4232 2.55109 12.5022 2.75 12.5022ZM10.07 2.30968L12.1925 4.43218L11.1275 5.49718L9.005 3.37468L10.07 2.30968ZM3.5 8.87968L7.9475 4.43218L10.07 6.55468L5.6225 11.0022H3.5V8.87968ZM14.75 14.0022H1.25C1.05109 14.0022 0.860322 14.0812 0.71967 14.2219C0.579018 14.3625 0.5 14.5533 0.5 14.7522C0.5 14.9511 0.579018 15.1419 0.71967 15.2825C0.860322 15.4232 1.05109 15.5022 1.25 15.5022H14.75C14.9489 15.5022 15.1397 15.4232 15.2803 15.2825C15.421 15.1419 15.5 14.9511 15.5 14.7522C15.5 14.5533 15.421 14.3625 15.2803 14.2219C15.1397 14.0812 14.9489 14.0022 14.75 14.0022Z" fill="currentColor"/>
</svg>
