<svg width="16" height="16" viewBox="0 0 16 16" fill="none" xmlns="http://www.w3.org/2000/svg">
<path d="M13.8315 12.9846L11.6068 10.7779C12.4704 9.70116 12.8886 8.3345 12.7754 6.95892C12.6623 5.58334 12.0264 4.30339 10.9985 3.38225C9.97062 2.46112 8.62888 1.96881 7.24917 2.00657C5.86946 2.04432 4.55665 2.60927 3.58069 3.58523C2.60472 4.5612 2.03978 5.87401 2.00202 7.25372C1.96427 8.63343 2.45657 9.97517 3.37771 11.003C4.29884 12.0309 5.57879 12.6668 6.95437 12.78C8.32996 12.8931 9.69661 12.4749 10.7733 11.6114L12.98 13.8181C13.0358 13.8743 13.1021 13.9189 13.1752 13.9493C13.2482 13.9798 13.3266 13.9954 13.4058 13.9954C13.4849 13.9954 13.5633 13.9798 13.6364 13.9493C13.7094 13.9189 13.7758 13.8743 13.8315 13.8181C13.9396 13.7063 14 13.5568 14 13.4013C14 13.2458 13.9396 13.0964 13.8315 12.9846ZM7.40932 11.6114C6.57914 11.6114 5.76759 11.3652 5.07732 10.904C4.38704 10.4427 3.84904 9.78718 3.53134 9.02019C3.21364 8.25319 3.13051 7.40922 3.29247 6.59498C3.45444 5.78074 3.85421 5.03282 4.44124 4.44579C5.02827 3.85876 5.7762 3.45898 6.59043 3.29702C7.40467 3.13506 8.24865 3.21818 9.01564 3.53588C9.78263 3.85358 10.4382 4.39159 10.8994 5.08186C11.3607 5.77214 11.6068 6.58368 11.6068 7.41387C11.6068 8.52712 11.1646 9.59477 10.3774 10.382C9.59022 11.1691 8.52257 11.6114 7.40932 11.6114Z" fill="#C1C3C8"/>
</svg>
