<svg width="16" height="16" viewBox="0 0 16 16" fill="none" xmlns="http://www.w3.org/2000/svg">
<path fill-rule="evenodd" clip-rule="evenodd" d="M10.8125 0.497833V1.46303H13.625V3.31444H2.375V1.46303H5.1875V0.497833H10.8125ZM2.375 13.4139C2.375 14.5662 3.3125 15.5022 4.46698 15.5022H11.5303C12.6848 15.5022 13.6223 14.5662 13.6223 13.4139V4.27086H2.375V13.4139ZM4.25 6.14274H11.75V12.9342C11.75 13.3173 11.4369 13.6303 11.0524 13.6303H4.94763C4.56311 13.6303 4.25 13.3173 4.25 12.9342V6.14274ZM8.9375 7.04944H10.8125V12.6651H8.9375V7.04944ZM7.0625 7.04944H5.1875V12.6651H7.0625V7.04944Z" fill="currentColor"/>
</svg>
